FILE "data.wav" BINARY
  TRACK 01 AUDIO
    INDEX 01 00:00:00
  TRACK 02 AUDIO
    INDEX 00 02:57:52
    INDEX 01 03:00:02
  TRACK 03 AUDIO
    INDEX 00 04:46:17
    INDEX 01 04:48:64
  TRACK 04 AUDIO
    INDEX 00 07:09:01
    INDEX 01 07:11:49
  TRACK 05 AUDIO
    INDEX 00 09:11:46
    INDEX 01 09:13:54
  TRACK 06 AUDIO
    INDEX 00 11:10:13
    INDEX 01 11:12:51
  TRACK 07 AUDIO
    INDEX 00 13:03:74
    INDEX 01 13:07:19
